<?xml version="1.0" encoding="UTF-8" standalone="no"?>
<!-- Created with Inkscape (http://www.inkscape.org/) -->
<svg
   xmlns:dc="http://purl.org/dc/elements/1.1/"
   xmlns:cc="http://creativecommons.org/ns#"
   xmlns:rdf="http://www.w3.org/1999/02/22-rdf-syntax-ns#"
   xmlns:svg="http://www.w3.org/2000/svg"
   xmlns="http://www.w3.org/2000/svg"
   xmlns:xlink="http://www.w3.org/1999/xlink"
   xmlns:sodipodi="http://sodipodi.sourceforge.net/DTD/sodipodi-0.dtd"
   xmlns:inkscape="http://www.inkscape.org/namespaces/inkscape"
   width="744.09448819"
   height="1052.3622047"
   id="svg4075"
   sodipodi:version="0.32"
   inkscape:version="0.46"
   sodipodi:docname="blockschedule.svg"
   inkscape:output_extension="org.inkscape.output.svg.inkscape">
  <defs
     id="defs4077">
    <linearGradient
       id="linearGradient4630">
      <stop
         style="stop-color:#666b66;stop-opacity:1;"
         offset="0"
         id="stop4632" />
      <stop
         style="stop-color:#b2afb2;stop-opacity:1;"
         offset="1"
         id="stop4634" />
    </linearGradient>
    <inkscape:perspective
       sodipodi:type="inkscape:persp3d"
       inkscape:vp_x="0 : 526.18109 : 1"
       inkscape:vp_y="0 : 1000 : 0"
       inkscape:vp_z="744.09448 : 526.18109 : 1"
       inkscape:persp3d-origin="372.04724 : 350.78739 : 1"
       id="perspective4083" />
    <linearGradient
       inkscape:collect="always"
       xlink:href="#linearGradient4630"
       id="linearGradient4636"
       x1="-271.43521"
       y1="726.51874"
       x2="-265.97784"
       y2="-104.64375"
       gradientUnits="userSpaceOnUse"
       gradientTransform="translate(-107.07617,-14.142136)" />
    <linearGradient
       inkscape:collect="always"
       xlink:href="#linearGradient4630"
       id="linearGradient4644"
       x1="-271.43521"
       y1="726.51874"
       x2="-265.97784"
       y2="-104.64375"
       gradientUnits="userSpaceOnUse"
       gradientTransform="translate(-107.07617,-14.142136)" />
    <linearGradient
       inkscape:collect="always"
       xlink:href="#linearGradient4630"
       id="linearGradient4666"
       gradientUnits="userSpaceOnUse"
       gradientTransform="translate(-1098.9441,9.0340557)"
       x1="49.233795"
       y1="303.32812"
       x2="1285.7974"
       y2="303.32812" />
    <filter
       inkscape:collect="always"
       id="filter4760">
      <feGaussianBlur
         inkscape:collect="always"
         stdDeviation="32.825858"
         id="feGaussianBlur4762" />
    </filter>
  </defs>
  <sodipodi:namedview
     id="base"
     pagecolor="#ffffff"
     bordercolor="#ffffff"
     borderopacity="0.0"
     inkscape:pageopacity="0.0"
     inkscape:pageshadow="0"
     inkscape:zoom="0.35"
     inkscape:cx="151.40769"
     inkscape:cy="802.28817"
     inkscape:document-units="px"
     inkscape:current-layer="layer2"
     showgrid="false"
     inkscape:window-width="1541"
     inkscape:window-height="857"
     inkscape:window-x="18"
     inkscape:window-y="162" />
  <metadata
     id="metadata4080">
    <rdf:RDF>
      <cc:Work
         rdf:about="">
        <dc:format>image/svg+xml</dc:format>
        <dc:type
           rdf:resource="http://purl.org/dc/dcmitype/StillImage" />
      </cc:Work>
    </rdf:RDF>
  </metadata>
  <g
     inkscape:label="Layer 1"
     inkscape:groupmode="layer"
     id="layer1">
    <path
       style="opacity:1;fill:url(#linearGradient4636);fill-opacity:1;fill-rule:nonzero;stroke:url(#linearGradient4644);stroke-width:22.60000038;stroke-linejoin:round;stroke-miterlimit:4;stroke-dasharray:none;stroke-opacity:1"
       d="M -852.79492,-107.48589 L -852.79492,701.07661 L -44.23242,701.07661 L -44.23242,-107.48589 L -852.79492,-107.48589 z M -515.16992,-67.954636 L -259.70117,-67.954636 L -259.70117,77.420364 L -515.16992,77.420364 L -515.16992,-67.954636 z M -795.88867,-67.704636 L -650.16992,-67.704636 L -650.16992,78.014114 L -795.88867,78.014114 L -795.88867,-67.704636 z M -211.51367,123.54536 L -107.07617,123.54536 L -107.07617,269.42036 L -211.51367,269.42036 L -211.51367,123.54536 z M -681.01367,123.79536 L -425.51367,123.79536 L -425.51367,269.17036 L -681.01367,269.17036 L -681.01367,123.79536 z M -730.79492,318.17036 L -488.13867,318.17036 L -488.13867,463.57661 L -730.79492,463.57661 L -730.79492,318.17036 z M -350.07617,318.17036 L -107.41992,318.17036 L -107.41992,463.57661 L -350.07617,463.57661 L -350.07617,318.17036 z M -610.98242,500.82661 L -486.51367,500.82661 L -486.51367,646.63911 L -610.98242,646.63911 L -610.98242,500.82661 z M -433.85742,500.82661 L -309.35742,500.82661 L -309.35742,646.63911 L -433.85742,646.63911 L -433.85742,500.82661 z M -272.41992,500.82661 L -147.95117,500.82661 L -147.95117,646.63911 L -272.41992,646.63911 L -272.41992,500.82661 z"
       id="rect4099" />
  </g>
  <g
     inkscape:groupmode="layer"
     id="layer2"
     inkscape:label="bla">
    <path
       style="opacity:1;fill:#000000;fill-opacity:1;fill-rule:nonzero;stroke:#ffffff;stroke-width:24.08200073;stroke-linejoin:round;stroke-miterlimit:4;stroke-dasharray:none;stroke-opacity:1"
       d="M 347.33929,-320.4241 L 347.33929,892.79465 L 1559.1205,892.79465 L 1559.1205,-320.4241 L 347.33929,-320.4241 z M 542.05804,-116.58035 L 1350.6205,-116.58035 L 1350.6205,691.98215 L 542.05804,691.98215 L 542.05804,-116.58035 z M 879.68304,-77.049103 L 879.68304,68.325893 L 1135.1518,68.325893 L 1135.1518,-77.049103 L 879.68304,-77.049103 z M 598.96429,-76.799103 L 598.96429,68.919643 L 744.68304,68.919643 L 744.68304,-76.799103 L 598.96429,-76.799103 z M 1183.3393,114.45089 L 1183.3393,260.3259 L 1287.7768,260.3259 L 1287.7768,114.45089 L 1183.3393,114.45089 z M 713.83929,114.70089 L 713.83929,260.0759 L 969.3393,260.0759 L 969.3393,114.70089 L 713.83929,114.70089 z M 664.05804,309.0759 L 664.05804,454.48215 L 906.71429,454.48215 L 906.71429,309.0759 L 664.05804,309.0759 z M 1044.7768,309.0759 L 1044.7768,454.48215 L 1287.4331,454.48215 L 1287.4331,309.0759 L 1044.7768,309.0759 z M 783.87054,491.73215 L 783.87054,637.54465 L 908.33929,637.54465 L 908.33929,491.73215 L 783.87054,491.73215 z M 960.9955,491.73215 L 960.9955,637.54465 L 1085.4955,637.54465 L 1085.4955,491.73215 L 960.9955,491.73215 z M 1122.433,491.73215 L 1122.433,637.54465 L 1246.9018,637.54465 L 1246.9018,491.73215 L 1122.433,491.73215 z"
       id="rect4653" />
    <path
       style="opacity:0.82572614000000000;fill:#000000;fill-opacity:1;fill-rule:nonzero;stroke:url(#linearGradient4666);stroke-width:24.78241158000000155;stroke-linejoin:round;stroke-miterlimit:4;stroke-dasharray:none;stroke-opacity:1;filter:url(#filter4760)"
       d="M -1037.3191,-294.24719 L -1037.3191,918.97156 L 174.46201,918.97156 L 174.46201,-294.24719 L -1037.3191,-294.24719 z M -842.60043,-90.403443 L -34.037986,-90.403443 L -34.037986,718.15906 L -842.60043,718.15906 L -842.60043,-90.403443 z M -504.97543,-50.872194 L -504.97543,94.502796 L -249.50667,94.502796 L -249.50667,-50.872194 L -504.97543,-50.872194 z M -785.69418,-50.622194 L -785.69418,95.096546 L -639.97543,95.096546 L -639.97543,-50.622194 L -785.69418,-50.622194 z M -201.31917,140.62781 L -201.31917,286.50281 L -96.881669,286.50281 L -96.881669,140.62781 L -201.31917,140.62781 z M -670.81918,140.87781 L -670.81918,286.25281 L -415.31917,286.25281 L -415.31917,140.87781 L -670.81918,140.87781 z M -720.60043,335.25281 L -720.60043,480.65906 L -477.94418,480.65906 L -477.94418,335.25281 L -720.60043,335.25281 z M -339.88167,335.25281 L -339.88167,480.65906 L -97.225369,480.65906 L -97.225369,335.25281 L -339.88167,335.25281 z M -600.78793,517.90906 L -600.78793,663.72156 L -476.31918,663.72156 L -476.31918,517.90906 L -600.78793,517.90906 z M -423.66297,517.90906 L -423.66297,663.72156 L -299.16297,663.72156 L -299.16297,517.90906 L -423.66297,517.90906 z M -262.22547,517.90906 L -262.22547,663.72156 L -137.75667,663.72156 L -137.75667,517.90906 L -262.22547,517.90906 z"
       id="path4664" />
  </g>
</svg>
